<svg xmlns="http://www.w3.org/2000/svg" xmlns:xlink="http://www.w3.org/1999/xlink" width="125" height="118" viewBox="0 0 125 118"><defs><style>.a{fill:#fff;}.b{clip-path:url(#a);}.c{fill:#fc257e;}.d{opacity:0.4;}.e{fill:#fae4f1;}.f{fill:#f78d1d;}.aa,.g,.t,.x{fill:none;stroke-miterlimit:10;}.g{stroke:#080909;stroke-width:0.057px;}.h{fill:#ffae60;}.i{fill:#fc7b22;}.j{fill:#ffe1c4;}.k{fill:#fad0ac;}.l{fill:#ff6aa8;}.m{fill:#d8d8d8;}.n{fill:gray;}.o{fill:#6e36de;}.p{fill:#2a1c54;}.q{fill:#cfa386;}.r{fill:#80604e;}.s{fill:#ffcd9c;}.t{stroke:#297426;stroke-width:0.144px;}.u{fill:#c3ddbc;}.v{fill:#a6e695;}.w{fill:#9dcf90;}.x{stroke:#e67015;stroke-linecap:round;}.aa,.x{stroke-width:0.574px;}.y{fill:#4a4949;}.z{fill:#80370e;}.aa{stroke:#7d7d7d;}</style><clipPath id="a"><rect class="a" width="125" height="118" rx="4" transform="translate(322.382 0.25)"/></clipPath></defs><g class="b" transform="translate(-322.382 -0.25)"><path class="c" d="M1.387,0H122.02c.766,0,1.387,2.243,1.387,5.009V113.952c0,2.766-.621,5.009-1.387,5.009H1.387C.621,118.96,0,116.718,0,113.952V5.009C0,2.243.621,0,1.387,0Z" transform="translate(322.382 -0.21)"/><g class="d" transform="translate(519.881 -60.316)"><path class="e" d="M59.656,195.85c-8.4-32.992,65.869-84.88,109-107.3,34.491-17.927,41.314-12.98,76.047-32.514,61.524-34.6,60.754-61.736,106.465-84,36.1-17.581,96.091-29.633,133.954-9.753,65.447,34.364,67.129,165.387,0,236.474C371.807,318.754,74.711,254.964,59.656,195.85Z" transform="translate(-59 48)"/><path class="f" d="M238.815,60.935s-13.484-5.753-7.73-17.979c0,0-2.338-14.743,7.73-17.081,0,0,16-15.282,24.272,10.428,0,0,11.686,2.7,9.708,16,0,0,19.955,16-9.17,28.585,0,0,.361-15.1,1.26-15.823s3.234-9.2-5.393-11.431h-4.136s-2.517-8.524-2.517-10.322a3.228,3.228,0,0,1,.9-2.517s4.882-2.7.824-5.753l-1.722.18s-5.572-5.034-6.292-7.91c0,0-8.99-.359-7.371,10.068,0,0-.139,9.243,7.371,10.427l.719,7.732s-6.652,1.08-8.45,5.394" transform="translate(-15.958 65.496)"/><path class="g" d="M238.815,60.935s-13.484-5.753-7.73-17.979c0,0-2.338-14.743,7.73-17.081,0,0,16-15.282,24.272,10.428,0,0,11.686,2.7,9.708,16,0,0,19.955,16-9.17,28.585,0,0,.361-15.1,1.26-15.823s3.234-9.2-5.393-11.431h-4.136s-2.517-8.524-2.517-10.322a3.228,3.228,0,0,1,.9-2.517s4.882-2.7.824-5.753l-1.722.18s-5.572-5.034-6.292-7.91c0,0-8.99-.359-7.371,10.068,0,0-.139,9.243,7.371,10.427l.719,7.732S240.613,56.62,238.815,60.935Z" transform="translate(-15.958 65.496)"/><path class="h" d="M233.06,65.259l-1.977-1.617L241.35,51.13l2.245-1.283,3.307-.77s-2.337,12.374,8.093-1.9a13.184,13.184,0,0,1,4.32,0c3.549.666,7.722,3.314,5.208,11.432l-1.26,15.823s-2.5,13.483,1.986,24.45l-28.414-2.7.18-14.923-.18-12.585Z" transform="translate(-15.598 71.959)"/><path class="c" d="M187.823,152.8l23.013-43.868s-6.294-9.529,0-12.225c0,0-.361-3.6,40.991-10.428l28.414,2.7s4.127,19.777-6.84,19.237l-34.7-.359s-6.832,7.731-10.607,5.933L247.332,145.6s.9,4.675,4.5,5.934,3.6,3.057,3.6,3.057-4.854,11.327-3.236,15.1l-7.9-.719,1.787-6.473s-.179-8.63-7.011-13.3l-19.6-26.251-3.237,7.012-22.113,27.328s-3.6,4.316-1.618,6.294-.9,5.213-.9,5.213l-19.957.9V168.08l10.607-5.4s5.034-3.955,5.572-9.888" transform="translate(-30.59 81.866)"/><path class="i" d="M241.153,50.474,236.837,67.8l-5.754-5.035,8.234-10.693Z" transform="translate(-15.598 72.837)"/><path class="i" d="M242.247,62.722l1.1,1.126,7.372,7.539,11.576-12.831s4.211-8.315-5.556-11.451Z" transform="translate(-12.782 71.987)"/><path class="j" d="M216.08,72.6s25.35-2.079,25.89-2.995,7.945-9.119,7.945-9.119l6.17,6.492-8.722,8.858s-2.246,2.7-7.461,1.215l-21.8.445Z" transform="translate(-19.382 75.362)"/><path class="k" d="M236.277,61.137s-2.319,5.5-3,5.1L215.309,71.9l.963.539,24.607-2.6-.064-4.726Z" transform="translate(-19.576 75.526)"/><path class="l" d="M207.578,108.861s2.427-7.91,6.337-8.314L252.062,86.54,276.983,88.9s5.044,19.328-6.147,19.957-35.391-1.078-35.391-1.078-5.348,7.1-10.608,5.933l-4.45.128-4.18,9.041-3.234,7.014-22.115,27.326-6.292-4.494Z" transform="translate(-27.331 81.933)"/><path class="m" d="M228.408,81.285l-.568-1.37-9.809-23.661s-.273-3.55-4.824-3.642-31.494,0-31.494,0-5.188-.545-2.911,5.189,11.286,24.3,11.286,24.3h38.866Z" transform="translate(-28.93 73.366)"/><path class="n" d="M237.08,74.283s2.158,1.533,0,2.522l-18.337-.361-1.1-2.161Z" transform="translate(-18.988 78.842)"/><path class="a" d="M201.147,65.323a2.642,2.642,0,1,1-.04-1.029A2.638,2.638,0,0,1,201.147,65.323Z" transform="translate(-24.472 75.812)"/><path class="o" d="M225.831,114.239h43.06l15.5-49.281s6.609-8.655,10.383-.564c0,0,1.215,4.4,0,6.517l-16.315,55.24-26.834-.376-21.44-.3S216.752,123.9,225.831,114.239Z" transform="translate(-17.717 75.476)"/><path class="p" d="M273.182,88.428l-27.11.854s-16.586,1.8-16.855,18.022l2.337.26s1.439-14.237,14.518-15.452a254.623,254.623,0,0,1,26.228-.88l.883-2.22Z" transform="translate(-16.069 82.409)"/><path class="q" d="M146.823,76.081H255.745s4.464,1.8,0,4.315H146.823S143.408,78.238,146.823,76.081Z" transform="translate(-37.233 79.295)"/><path class="r" d="M148.1,170.5l.179-90.971h3.237V112.07l97.086.538V79.527h3.415v91.315h-3.057L248.6,115.3H151.333l-.359,55.538Z" transform="translate(-36.528 80.164)"/><path class="s" d="M245.263,55.227s-1.759,10.68,8.217-2.789l-2.516-10.32a2.736,2.736,0,0,1,.9-2.516c1.19-.884,4.341-2.518.823-5.755l-1.722.181s-5.664-5.3-6.295-7.911c0,0-9.079-.18-7.371,10.068,0,0,.18,9.889,7.371,10.428l.72,7.732Z" transform="translate(-14.084 66.693)"/><path class="t" d="M330.681,115.519s3.181-32.494,10.395-35.162" transform="translate(9.522 80.374)"/><path class="t" d="M328.606,124.224s-3.983-45.521,0-50.735" transform="translate(8.552 78.641)"/><path class="t" d="M324.816,123.966s-5.64-37.748-8.534-39.609" transform="translate(5.89 81.382)"/><path class="u" d="M323.828,138.932s-10.335-17-4.737-27.762-9.9-32.078-9.9-32.078,12.918-2.369,14.64,15.284c.684,7.015,2.864,12.8,4.432,18.3,2.379,8.336,3.354,16-4.432,26.259" transform="translate(4.101 80.028)"/><path class="v" d="M325.173,116.744S319.883,78.5,324.5,74.813c0,0,15.386-19.9,11.941-2.948-1.26,6.2-3.1,15.2-4.695,24.63-.458,2.7-.9,5.435-1.3,8.149-1.8,12.228-2.825,24.062-1.337,30.456a12.5,12.5,0,0,0,.662,2.092c4.513,10.576-9.265,6.155-9.265,6.155l-2.153-6.155Z" transform="translate(6.415 76.507)"/><path class="w" d="M342.63,75.328S327.69,91.9,326.18,101.475,320.5,126.331,325.442,130s-.224,5.392-.224,5.392l11.29,6.028s8.823-26.719.942-41.287c0,0,23.559-34.924,5.183-24.806" transform="translate(7.609 78.641)"/><path class="x" d="M240.883,39.858s3.4.013,3.414-2.55" transform="translate(-13.126 69.516)"/><path class="y" d="M167.031,69.924s2.678-.275,2.374,2.182-1.677,3.38-2.962,2.485l.318-.9s3.64-.823.217-2.643Z" transform="translate(-31.901 77.74)"/><path class="z" d="M160.74,67.97s-.462,8.682,2.427,10.279H166.4a6.546,6.546,0,0,0,1.747-3.17,15.605,15.605,0,0,0,.584-4.267,24.745,24.745,0,0,0-.136-2.842Z" transform="translate(-33.346 77.249)"/><path class="aa" d="M162.159,62.655a1.746,1.746,0,0,0-.263,2.39c1.016,1.232-.368,2.365-.368,2.365" transform="translate(-33.147 75.909)"/><path class="aa" d="M164.267,63.232A1.747,1.747,0,0,0,164,65.623c1.016,1.232-.368,2.365-.368,2.365" transform="translate(-32.615 76.054)"/><path class="aa" d="M166.189,62.268a1.747,1.747,0,0,0-.264,2.391c1.014,1.232-.368,2.365-.368,2.365" transform="translate(-32.131 75.811)"/></g><path class="a" d="M39.273,45.136a3.348,3.348,0,1,0,3.065,3.336A3.2,3.2,0,0,0,39.273,45.136Zm10.969,0a3.348,3.348,0,1,0,3.065,3.336A3.2,3.2,0,0,0,50.243,45.136Z" transform="translate(339.372 11.174)"/><path class="a" d="M68.432,25H28.161A6.176,6.176,0,0,0,22,31.191V71.823a6.176,6.176,0,0,0,6.161,6.191h34.08l-1.593-5.56L64.5,76.03,68.132,79.4l6.461,5.71V31.191A6.176,6.176,0,0,0,68.432,25Zm-11.6,39.249s-1.082-1.292-1.984-2.434a9.483,9.483,0,0,0,5.44-3.576,17.2,17.2,0,0,1-3.456,1.773A19.78,19.78,0,0,1,52.474,61.3a21.054,21.054,0,0,1-7.784-.03,25.229,25.229,0,0,1-4.418-1.292,17.6,17.6,0,0,1-2.194-1.022c-.09-.06-.18-.09-.27-.15a.415.415,0,0,1-.12-.09c-.541-.3-.841-.511-.841-.511a9.347,9.347,0,0,0,5.259,3.546c-.9,1.142-2.014,2.494-2.014,2.494-6.642-.21-9.166-4.568-9.166-4.568A40.246,40.246,0,0,1,35.253,42.16,14.861,14.861,0,0,1,43.7,39l.3.361c-5.41,1.563-7.9,3.937-7.9,3.937s.661-.361,1.773-.872a22.569,22.569,0,0,1,6.822-1.893,2.96,2.96,0,0,1,.511-.06A24.5,24.5,0,0,1,60.318,43.3a20,20,0,0,0-7.483-3.817L53.255,39A14.861,14.861,0,0,1,61.7,42.16a40.246,40.246,0,0,1,4.328,17.521S63.473,64.039,56.832,64.249Z" transform="translate(335.789 6.095)"/><path class="a" d="M85.109,55.248c0,1.454-.671,2.181-1.817,2.181-1.23,0-1.957-.811-1.957-2.489H76.581c0,4.418,2.824,6.767,6.851,6.767,3.887,0,6.459-2.237,6.459-6.459V41.882H85.109ZM109.02,53.71c0-4.949-3.523-8.025-8.109-8.025-4.558,0-8.109,3.076-8.109,8.025a7.653,7.653,0,0,0,8.053,8.025C105.441,61.735,109.02,58.659,109.02,53.71Zm-11.352,0c0-2.656,1.51-3.887,3.244-3.887,1.678,0,3.244,1.23,3.244,3.887,0,2.628-1.594,3.887-3.3,3.887C99.121,57.6,97.667,56.338,97.667,53.71Zm13.889,7.8h4.781v-15.6h-4.781Zm2.4-17.225a2.6,2.6,0,1,0-2.851-2.572A2.633,2.633,0,0,0,113.961,44.287Zm16.608,17.225h4.753V52.4c0-4.194-2.406-6.655-6.012-6.655a5.721,5.721,0,0,0-4.726,2.237V45.908H119.8v15.6h4.781V53.039c0-2.125,1.175-3.3,2.992-3.3s2.993,1.174,2.993,3.3Zm14.756-5.425c0,4.054,2.265,5.425,5.508,5.425h2.433V57.457h-1.706c-1.063,0-1.455-.391-1.455-1.314V49.879h3.132V45.908h-3.132v-3.8h-4.781v3.8h-1.9v3.971h1.9Zm10.605,5.425h4.781V53.039c0-2.125,1.175-3.3,2.992-3.3s2.993,1.174,2.993,3.3v8.472h4.753V52.4c0-4.194-2.377-6.655-5.928-6.655a5.754,5.754,0,0,0-4.81,2.265V40.819H155.93Zm25.719-12a2.7,2.7,0,0,1,2.936,2.684H178.6A2.956,2.956,0,0,1,181.65,49.515Zm7.467,6.823h-5.089a2.544,2.544,0,0,1-2.489,1.51,2.893,2.893,0,0,1-2.964-2.992H189.4a12,12,0,0,0,.084-1.4,7.353,7.353,0,0,0-7.774-7.774c-4.642,0-7.885,3.076-7.885,8.025s3.3,8.025,7.885,8.025A7.293,7.293,0,0,0,189.116,56.338Zm21.814-3.411h-4.642l.783-3.663h4.642Zm-1.846,8.584h4.474l.923-4.278h4.278V52.927H215.4l.783-3.663h4.361V44.958h-3.467l.9-4.138H213.5l-.894,4.138h-4.642l.894-4.138h-4.473l-.9,4.138h-4.949v4.306H202.6l-.783,3.663h-5.061v4.306h4.139l-.923,4.278h4.474l.923-4.278h4.642Zm16.757,0H231.1l2.545-10.122L236.1,61.511h5.286l4.222-15.6h-4.5l-2.18,11.1-2.657-11.1h-5.06l-2.628,11.157-2.209-11.157h-4.782Zm22.348-5.425c0,4.054,2.264,5.425,5.509,5.425h2.432V57.457h-1.706c-1.062,0-1.454-.391-1.454-1.314V49.879H256.1V45.908h-3.132v-3.8H248.19v3.8h-1.9v3.971h1.9Zm9.961,5.145h14.036V57.345h-7.55c3.245-2.489,7.243-6.068,7.243-10.542,0-3.439-2.07-6.152-6.711-6.152-3.719,0-6.935,2.125-7.075,7.074h4.614c0-1.929.838-3.048,2.264-3.048,1.454,0,2.125.951,2.125,2.433,0,3.439-4.613,6.99-8.947,10.57Zm18.406.28h4.978V41.1H273.79v4.446h2.767Zm22-19.629h-7.354V61.511h7.354c6.264,0,10.289-4,10.289-9.815C308.851,45.852,304.825,41.882,298.561,41.882Zm-2.573,15.491V45.964h2.265c3.608,0,5.733,2.125,5.733,5.732s-2.125,5.676-5.733,5.676Zm15.535,4.138H316.3v-15.6h-4.781Zm2.4-17.225a2.6,2.6,0,1,0-2.851-2.572A2.633,2.633,0,0,0,313.927,44.287Zm18.509,12.695c-.084-5.816-8.529-4.054-8.529-6.543,0-.755.616-1.2,1.734-1.2A2.057,2.057,0,0,1,327.935,51h4.418c-.308-3.076-2.545-5.313-6.57-5.313-4.083,0-6.348,2.181-6.348,4.837,0,5.732,8.5,3.915,8.5,6.431,0,.7-.644,1.258-1.873,1.258a2.191,2.191,0,0,1-2.405-1.818h-4.725c.223,3.02,3.019,5.341,7.185,5.341C330.032,61.735,332.436,59.694,332.436,56.981Zm1.975-3.272c0,4.949,3.243,8.025,7.829,8.025a7.246,7.246,0,0,0,7.495-5.872h-5.089a2.428,2.428,0,0,1-2.489,1.79c-1.706,0-2.88-1.342-2.88-3.943s1.175-3.943,2.88-3.943a2.466,2.466,0,0,1,2.489,1.79h5.089c-.811-3.719-3.579-5.872-7.495-5.872C337.654,45.685,334.411,48.788,334.411,53.71Zm33.147,0c0-4.949-3.522-8.025-8.108-8.025-4.558,0-8.109,3.076-8.109,8.025a7.653,7.653,0,0,0,8.053,8.025C363.98,61.735,367.558,58.659,367.558,53.71Zm-11.353,0c0-2.656,1.51-3.887,3.245-3.887,1.678,0,3.243,1.23,3.243,3.887,0,2.628-1.594,3.887-3.3,3.887C357.661,57.6,356.206,56.338,356.206,53.71Zm18.672.559c0-2.684,1.314-3.467,3.579-3.467h1.314V45.741a5.815,5.815,0,0,0-4.892,2.768v-2.6H370.1v15.6h4.782Zm6.227-.587c0,4.921,3.048,8.053,6.878,8.053a5.4,5.4,0,0,0,4.81-2.461v2.237h4.782V40.819h-4.782v7.242a5.727,5.727,0,0,0-4.81-2.377C384.153,45.685,381.1,48.761,381.1,53.682Zm11.688.028c0,2.489-1.594,3.859-3.411,3.859-1.789,0-3.411-1.4-3.411-3.887s1.622-3.831,3.411-3.831C391.2,49.851,392.793,51.221,392.793,53.71Zm9.919.867h4.055l.559-13.394h-5.173Zm4.921,4.586a2.852,2.852,0,1,0-2.824,2.572A2.642,2.642,0,0,0,407.633,59.162Z" transform="translate(383.315 9.655)"/></g></svg>