<svg xmlns="http://www.w3.org/2000/svg" xmlns:xlink="http://www.w3.org/1999/xlink" width="894.58" height="480.851" viewBox="0 0 894.58 480.851"><defs><style>.a,.aa,.ac,.af,.c,.t{fill:none;}.b{fill:#f78d1d;}.c{stroke:#080909;stroke-width:0.1px;}.aa,.af,.c,.t{stroke-miterlimit:10;}.d{fill:#ffae60;}.e{fill:#fc257e;}.f{fill:#fc7b22;}.g{fill:#ffe1c4;}.h{fill:#fad0ac;}.i{fill:#ff6aa8;}.j{fill:#ffcd9c;}.k{fill:#d8d8d8;}.l{fill:gray;}.m{fill:#fff;}.n{fill:#6e36de;}.o{fill:#af96c7;}.p{fill:#2a1c54;}.q{fill:#cfa386;}.r{fill:#80604e;}.s{fill:#5e5e5e;}.t{stroke:#297426;stroke-width:0.25px;}.u{fill:#c3ddbc;}.v{fill:#a6e695;}.w{fill:#9dcf90;}.x{fill:#585858;}.y{opacity:0.17;}.z{clip-path:url(#a);}.aa{stroke:#e67015;stroke-linecap:round;}.ab{fill:#563383;}.ac{stroke:#000;stroke-width:3px;}.ad{fill:#4a4949;}.ae{fill:#80370e;}.af{stroke:#7d7d7d;}</style><clipPath id="a"><rect class="a" width="107.79" height="107.653"/></clipPath></defs><g transform="translate(-151.964 -276.76)"><g transform="translate(151.964 276.822)"><path class="b" d="M244.722,209.656s-39.179-16.717-22.459-52.238c0,0-6.792-42.837,22.459-49.629,0,0,46.492-44.4,70.523,30.3,0,0,33.956,7.835,28.21,46.492,0,0,57.983,46.492-26.645,83.06,0,0,1.047-43.881,3.661-45.974s9.4-26.731-15.673-33.216H292.783s-7.313-24.767-7.313-29.99,2.612-7.313,2.612-7.313,14.185-7.835,2.391-16.717l-5,.522s-16.2-14.627-18.285-22.984c0,0-26.117-1.043-21.416,29.254,0,0-.4,26.857,21.416,30.3l2.09,22.462s-19.329,3.137-24.552,15.673" transform="translate(174.115 -94.691)"/><path class="c" d="M244.722,209.656s-39.179-16.717-22.459-52.238c0,0-6.792-42.837,22.459-49.629,0,0,46.492-44.4,70.523,30.3,0,0,33.956,7.835,28.21,46.492,0,0,57.983,46.492-26.645,83.06,0,0,1.047-43.881,3.661-45.974s9.4-26.731-15.673-33.216H292.783s-7.313-24.767-7.313-29.99,2.612-7.313,2.612-7.313,14.185-7.835,2.391-16.717l-5,.522s-16.2-14.627-18.285-22.984c0,0-26.117-1.043-21.416,29.254,0,0-.4,26.857,21.416,30.3l2.09,22.462S249.946,197.119,244.722,209.656Z" transform="translate(174.115 -94.691)"/><path class="d" d="M225.548,177.834l-5.745-4.7,29.833-36.353,6.525-3.729,9.61-2.234s-6.789,35.953,23.512-5.53a38.315,38.315,0,0,1,12.555,0c10.309,1.936,22.438,9.629,15.13,33.216l-3.658,45.974s-7.267,39.176,5.77,71.041l-82.559-7.835.522-43.359-.522-36.567Z" transform="translate(177.615 -31.529)"/><path class="e" d="M196.349,364.923l66.868-127.462s-18.285-27.689,0-35.521c0,0-1.047-10.45,119.1-30.3l82.559,7.835s11.994,57.464-19.875,55.9l-100.82-1.047s-19.85,22.465-30.819,17.239l55.893,92.463s2.615,13.583,13.062,17.242,10.447,8.879,10.447,8.879-14.1,32.912-9.4,43.881l-22.953-2.09,5.193-18.807s-.522-25.074-20.372-38.654l-56.939-76.271-9.4,20.375-64.253,79.4s-10.45,12.54-4.7,18.285-2.612,15.146-2.612,15.146l-57.986,2.615v-4.7l30.822-15.674s14.624-11.49,16.192-28.729" transform="translate(31.816 64.517)"/><path class="f" d="M249.063,129.2,236.52,179.531,219.8,164.907l23.928-31.071Z" transform="translate(177.616 -23.3)"/><path class="f" d="M233.038,170.615l3.2,3.271,21.416,21.909,33.634-37.282s12.237-24.159-16.144-33.27Z" transform="translate(204.999 -31.597)"/><path class="g" d="M202.016,176.261s73.656-6.04,75.224-8.7,23.085-26.495,23.085-26.495l17.926,18.859-25.341,25.737s-6.525,7.838-21.676,3.529l-63.341,1.292Z" transform="translate(140.814 1.259)"/><path class="h" d="M262.024,141.838s-6.74,15.98-8.725,14.8L201.1,173.1l2.8,1.565,71.5-7.556-.19-13.731Z" transform="translate(138.927 2.856)"/><path class="i" d="M231.522,236.811s7.053-22.984,18.414-24.159l110.834-40.7,72.413,6.871s14.656,56.16-17.863,57.986-102.829-3.133-102.829-3.133-15.541,20.633-30.822,17.239l-12.93.378L256.6,277.556l-9.4,20.375-64.253,79.4-18.285-13.059Z" transform="translate(63.512 65.166)"/><path class="j" d="M173.787,234.619l20.433,13.059s-12.7,12.408-5.254,18.285c0,0-34.117,8.572-27.127-8.056,0,0,14.284-15.452,11.948-23.288" transform="translate(53.666 194.821)"/><path class="j" d="M25.226,0s1.782,14.715,13.712,18.674c0,0-10.013,33.246-17.552,34.519A53.485,53.485,0,0,0,0,11.317Z" transform="translate(376.136 409.197) rotate(-1)"/><path class="k" d="M302.95,215.112l-1.651-3.98-28.5-68.749s-.795-10.315-14.016-10.582-91.509,0-91.509,0-15.075-1.587-8.461,15.078,32.792,70.612,32.792,70.612h112.93Z" transform="translate(47.958 -18.152)"/><path class="l" d="M260.347,157.423s6.27,4.453,0,7.329l-53.281-1.05-3.2-6.279Z" transform="translate(144.646 35.102)"/><path class="m" d="M193.643,153.572a7.671,7.671,0,1,1-6.376-8.776,7.665,7.665,0,0,1,6.376,8.776" transform="translate(91.01 4.117)"/><path class="n" d="M218.994,296.472H344.106l45.053-143.191s19.2-25.147,30.168-1.639c0,0,3.529,12.8,0,18.936l-47.4,160.5-77.968-1.09-62.295-.868s-39.047-4.573-12.666-32.651" transform="translate(157.009 2.369)"/><path class="o" d="M242.8,340.39l0-137.4,13.623.209V340.39l7.792,7.734H234.568Z" transform="translate(208.165 129.375)"/><path class="p" d="M345.335,174.193l-78.769,2.483s-48.19,5.223-48.975,52.367l6.792.755s4.18-41.367,42.184-44.9a741.821,741.821,0,0,1,76.2-2.556l2.566-6.451Z" transform="translate(173.037 69.799)"/><path class="q" d="M122.522,159.555H439s12.973,5.224,0,12.537H122.522s-9.925-6.27,0-12.537" transform="translate(-32.787 39.513)"/><path class="r" d="M121.42,427.965l.522-264.325h9.4v94.553l282.088,1.565V163.64h9.925V428.962h-8.882l-1.043-161.369H130.824l-1.047,161.369Z" transform="translate(-25.939 47.965)"/><path class="j" d="M250.678,184.905s-5.113,31.031,23.877-8.1l-7.31-29.99s-.847-4.742,2.612-7.31,12.614-7.317,2.391-16.72l-5,.525s-16.456-15.413-18.288-22.987c0,0-26.378-.522-21.416,29.254,0,0,.522,28.732,21.416,30.3l2.09,22.462Z" transform="translate(192.339 -83.046)"/><path class="s" d="M188.945,242.207l-5.784,5.441-32.413,15.673s-4.6,3.655,0,4.7,60.982-2.612,60.982-2.612,8.515-9.271,2.747-15.149c0,0-23.663,7.789-25.532-8.056" transform="translate(27.174 210.521)"/><path class="s" d="M237.063,233.427s10.65,3.523,10.786,8.882c0,0-15.3,36.174-9.709,43.878L219.8,284.572v-19.28s16.449-19.461,17.26-31.866" transform="translate(177.615 192.355)"/><path class="t" d="M337.879,266.793s9.241-94.415,30.2-102.17" transform="translate(421.916 49.999)"/><path class="t" d="M338.463,303.9s-11.573-132.265,0-147.414" transform="translate(412.481 33.155)"/><path class="t" d="M345.6,284.454s-16.389-109.68-24.791-115.088" transform="translate(386.6 59.812)"/><path class="u" d="M354.934,337.173s-30.027-49.39-13.762-80.663-28.775-93.2-28.775-93.2,37.531-6.884,42.536,44.409c1.986,20.381,8.32,37.2,12.875,53.161,6.914,24.221,9.744,46.492-12.875,76.3" transform="translate(369.196 46.64)"/><path class="v" d="M343.065,296.72s-15.37-111.132-1.943-121.837c0,0,44.706-57.814,34.7-8.566-3.661,18.021-9,44.157-13.639,71.563-1.332,7.844-2.606,15.793-3.766,23.68-5.233,35.53-8.21,69.912-3.888,88.489a36.539,36.539,0,0,0,1.924,6.083c13.114,30.727-26.918,17.88-26.918,17.88l-6.255-17.88Z" transform="translate(391.702 12.396)"/><path class="w" d="M385.643,161.826s-43.411,48.162-47.8,75.97-16.5,72.22-2.148,82.885-.657,15.667-.657,15.667l32.8,17.515s25.635-77.631,2.738-119.962c0,0,68.451-101.474,15.06-72.076" transform="translate(403.314 33.154)"/><path class="x" d="M414.906,322.022l48.708-105.749-156.071.021,48.736,105.737Z" transform="translate(359.15 156.863)"/><g class="y" transform="translate(714.975 373.136)"><g class="z"><path class="m" d="M428.838,216.273c1.3,10.033-86.531,123.586-105.562,105.758l58.87-.009,48.917-105.749Z" transform="translate(-323.273 -216.273)"/></g></g><path class="aa" d="M231.421,121s9.882.037,9.919-7.409" transform="translate(201.653 -55.591)"/><path class="ab" d="M90.309,251.153l876.074-1.574" transform="translate(-90.309 225.773)"/><path class="ac" d="M0,0H859" transform="translate(35.584 478.899)"/><g transform="translate(141.386 148.81)"><path class="ad" d="M22.846,28.606s7.783-.8,6.9,6.338-4.87,9.821-8.605,7.219l.925-2.6s10.577-2.392.63-7.68Z" transform="translate(-0.29 -0.758)"/><path class="ae" d="M.079,21.408S-1.263,46.635,7.13,51.273h9.4s3.068-2.445,5.076-9.21a45.491,45.491,0,0,0,1.7-12.4,72.369,72.369,0,0,0-.4-8.256Z" transform="translate(0 -0.66)"/><path class="af" d="M4.819,1.8S1.1,5.165,4.054,8.744s-1.069,6.871-1.069,6.871" transform="translate(-0.04 -0.391)"/><path class="af" d="M12.6,3.927s-3.716,3.367-.765,6.946-1.069,6.872-1.069,6.872" transform="translate(-0.147 -0.42)"/><path class="af" d="M19.684.371s-3.716,3.367-.765,6.946-1.069,6.871-1.069,6.871" transform="translate(-0.244 -0.371)"/></g></g></g></svg>